<svg width="101" height="101" viewBox="0 0 101 101" fill="none" xmlns="http://www.w3.org/2000/svg">
<circle cx="50.3945" cy="50.6578" r="50" fill="#192227" style="fill:#192227;fill:color(display-p3 0.0980 0.1333 0.1529);fill-opacity:1;"/>
<path d="M30.8772 47.6578C29.2203 47.6578 27.8772 49.001 27.8772 50.6578C27.8772 52.3147 29.2203 53.6578 30.8772 53.6578V47.6578ZM72.0332 52.7792C73.2048 51.6076 73.2048 49.7081 72.0332 48.5365L52.9413 29.4446C51.7697 28.2731 49.8702 28.2731 48.6987 29.4446C47.5271 30.6162 47.5271 32.5157 48.6987 33.6873L65.6692 50.6578L48.6987 67.6284C47.5271 68.8 47.5271 70.6995 48.6987 71.871C49.8702 73.0426 51.7697 73.0426 52.9413 71.871L72.0332 52.7792ZM30.8772 53.6578H69.9119V47.6578H30.8772V53.6578Z" fill="#F9A600" style="fill:#F9A600;fill:color(display-p3 0.9765 0.6510 0.0000);fill-opacity:1;"/>
</svg>
