<svg width="81" height="17" viewBox="0 0 81 17" fill="none" xmlns="http://www.w3.org/2000/svg">
<path d="M4.4475 16.7075H0.847497V0.627473H9.2475C12.9675 0.627473 15.3675 2.73947 15.3675 6.43547C15.3675 10.1315 12.9675 12.2675 9.2475 12.2675H4.4475V16.7075ZM8.8635 3.86747H4.4475V9.02747H8.8635C10.8555 9.02747 11.7915 8.45147 11.7915 6.43547C11.7915 4.46747 10.8555 3.86747 8.8635 3.86747ZM19.5964 16.7075H15.5644L22.5964 0.627473H27.7324L34.8124 16.7075H30.6844L29.1724 13.1555H21.1324L19.5964 16.7075ZM24.0364 6.41147L22.5244 9.91547H27.7804L26.2684 6.41147L25.2844 3.91547H25.0204L24.0364 6.41147ZM45.1802 16.7075H41.5562V11.3795L34.4282 0.627473H38.8682L41.9402 5.33147L43.2842 7.49147H43.5482L44.8922 5.33147L47.9642 0.627473H52.4282L45.1802 11.4035V16.7075ZM61.8251 11.1635H52.8731V8.06747H61.8251V11.1635Z" fill="white" style="fill:white;fill-opacity:1;"/>
<path d="M80.8071 16.7075H67.1991V0.627473H80.8071V3.86747H70.7991V7.01147H80.4471V10.2275H70.7991V13.4675H80.8071V16.7075Z" fill="#F9A600" style="fill:#F9A600;fill:color(display-p3 0.9765 0.6510 0.0000);fill-opacity:1;"/>
</svg>
